<svg id="Layer_1" data-name="Layer 1" xmlns="http://www.w3.org/2000/svg" viewBox="0 0 167.97 217.25"><defs><style>.cls-1{fill:#44b6e5;}</style></defs><path class="cls-1" d="M0,217.25V182.73l71.66-71.08A140.31,140.31,0,0,0,85.88,96a59.57,59.57,0,0,0,8.27-14.36A42,42,0,0,0,96.9,66.38a28.11,28.11,0,0,0-3-13.49A19.3,19.3,0,0,0,84,44.33q-6.81-2.89-18.71-2.9H4.93V7.78Q18.87,5.17,35.83,3A299.84,299.84,0,0,1,73.69.82q25.25,0,39.61,7t20.45,20q6.09,13.05,6.09,31.62a84,84,0,0,1-3.91,26.4,88.45,88.45,0,0,1-11.46,22.78,143.56,143.56,0,0,1-19.15,21.9L57.16,178.38h89.36v38.87Z"/></svg>