<svg id="Layer_1" data-name="Layer 1" xmlns="http://www.w3.org/2000/svg" viewBox="0 0 163.99 217.25"><defs><style>.cls-1{fill:#1b365d;}</style></defs><path class="cls-1" d="M81.73,219q-23.22,0-44.25-1.59T-.38,212.9V178.38H65.48a89.05,89.05,0,0,0,19.44-1.74q7.55-1.75,11.17-6.1t3.63-12.18v-9q0-7.83-3.77-12.33a22.46,22.46,0,0,0-10-6.67,49.22,49.22,0,0,0-14.37-2.47l-52.8-2V92.79l51.06-2.9q13.07-.58,20.31-4.65T97.4,71.32V64.06q0-11.6-7.69-17.11T64,41.43H4.26V7.2q16.55-2.61,36-4.79A295.59,295.59,0,0,1,81.15.82q18.85.29,31.91,6.23a42.86,42.86,0,0,1,19.88,17.7q6.81,11.74,6.81,29.16v16a54.55,54.55,0,0,1-1.88,14.79,32.72,32.72,0,0,1-5.66,11.46,38.29,38.29,0,0,1-8.7,8.13,40.22,40.22,0,0,1-10.45,5.07,30.69,30.69,0,0,1,11.46,5.52,44.89,44.89,0,0,1,9.43,9.72,47.43,47.43,0,0,1,6.53,13.49A56.89,56.89,0,0,1,143,155.17v11Q143,192,126.7,205.5T81.73,219Z"/></svg>