<svg id="Layer_1" data-name="Layer 1" xmlns="http://www.w3.org/2000/svg" viewBox="0 0 167.53 217.25"><defs><style>.cls-1{fill:#44b6e5;}</style></defs><path class="cls-1" d="M74.69,218.7q-17.7,0-37.13-1.45T.71,214.06V180.12H76.43q10.45,0,16.4-3.48a19.71,19.71,0,0,0,8.41-9.14,29.22,29.22,0,0,0,2.47-11.75V141q0-10.15-5.08-16.1t-17-5.95H64.83q-9.57,0-14.36,3.92t-6.24,12H3.61L9.7,2.56H138.52V41.14h-92L44.23,92.21a27.6,27.6,0,0,1,12-7.11,56.47,56.47,0,0,1,17.26-2.47H97q16.83,0,27.86,6.68a42.19,42.19,0,0,1,16.53,18.13,58.42,58.42,0,0,1,5.52,25.68v31.62q0,18.87-8.42,30.75t-24.37,17.56Q98.19,218.71,74.69,218.7Z"/></svg>