<svg id="Layer_1" data-name="Layer 1" xmlns="http://www.w3.org/2000/svg" viewBox="0 0 365.81 156.71"><defs><style>.cls-1{fill:#fff;}</style></defs><path class="cls-1" d="M147.47,137.81l-1.11-2.55h-5.53l-1.1,2.55h-1.51l4.66-10.5h1.5l4.65,10.5ZM141.4,134h4.41l-2.22-5.1Z"/><path class="cls-1" d="M157,130.65a3.08,3.08,0,0,1,.8,2.25v4.91h-1.4v-4.53a1.94,1.94,0,0,0-2.11-2.13,2.4,2.4,0,0,0-1.73.68,2.66,2.66,0,0,0-.76,1.73v4.25h-1.4v-7.94h1.4v1.68a3.05,3.05,0,0,1,3-1.72A2.9,2.9,0,0,1,157,130.65Z"/><path class="cls-1" d="M164.15,127.31h1.44v10.5h-1.44Z"/><path class="cls-1" d="M175,130.65a3.08,3.08,0,0,1,.8,2.25v4.91h-1.4v-4.53a1.94,1.94,0,0,0-2.11-2.13,2.4,2.4,0,0,0-1.73.68,2.66,2.66,0,0,0-.76,1.73v4.25h-1.4v-7.94h1.4v1.68a3.05,3.05,0,0,1,3-1.72A2.9,2.9,0,0,1,175,130.65Z"/><path class="cls-1" d="M181.44,131.15a3.85,3.85,0,0,0-1.13-.18,2,2,0,0,0-1,.23.77.77,0,0,0-.39.71.8.8,0,0,0,.43.73,6.1,6.1,0,0,0,1.3.5,10.13,10.13,0,0,1,1.35.48,2.36,2.36,0,0,1,.89.71,1.9,1.9,0,0,1,.37,1.23,1.94,1.94,0,0,1-.85,1.71,3.62,3.62,0,0,1-2.11.58,5.2,5.2,0,0,1-1.71-.28,3.9,3.9,0,0,1-1.41-.81l.53-1a3.75,3.75,0,0,0,1.22.72,4.1,4.1,0,0,0,1.42.27,2.12,2.12,0,0,0,1.11-.26.85.85,0,0,0,.42-.78.89.89,0,0,0-.44-.81,6.22,6.22,0,0,0-1.35-.54,9.36,9.36,0,0,1-1.29-.45,2.31,2.31,0,0,1-.86-.69,2.12,2.12,0,0,1,.46-2.83,3.49,3.49,0,0,1,2-.56,4.88,4.88,0,0,1,1.42.21,4.07,4.07,0,0,1,1.21.54l-.51,1.07A4.68,4.68,0,0,0,181.44,131.15Z"/><path class="cls-1" d="M189.28,137.28a3.43,3.43,0,0,1-1.86.59,2.13,2.13,0,0,1-1.53-.56,2.29,2.29,0,0,1-.59-1.71v-4.39h-1.12v-1.07h1.12V128h1.41v2.13h2.43v1.07h-2.43v4.14a1.45,1.45,0,0,0,.24.94.89.89,0,0,0,.72.29,2.53,2.53,0,0,0,1.23-.38Z"/><path class="cls-1" d="M192.21,127a.88.88,0,0,1,.25.65.86.86,0,0,1-.25.64.87.87,0,0,1-1.24,0,.86.86,0,0,1-.25-.64A.88.88,0,0,1,191,127a.89.89,0,0,1,1.24,0Zm-1.31,2.91h1.39v7.94H190.9Z"/><path class="cls-1" d="M199.19,137.28a3.43,3.43,0,0,1-1.86.59,2.13,2.13,0,0,1-1.53-.56,2.28,2.28,0,0,1-.58-1.71v-4.39h-1.13v-1.07h1.13V128h1.41v2.13h2.43v1.07h-2.43v4.14a1.45,1.45,0,0,0,.24.94.89.89,0,0,0,.72.29,2.53,2.53,0,0,0,1.23-.38Z"/><path class="cls-1" d="M207.83,129.87v7.94h-1.41v-1.68a3,3,0,0,1-2.94,1.72,2.86,2.86,0,0,1-2.16-.81,3.15,3.15,0,0,1-.78-2.26v-4.91H202v4.53a2.17,2.17,0,0,0,.55,1.57,2,2,0,0,0,1.51.56,2.23,2.23,0,0,0,1.76-.78,3,3,0,0,0,.65-2v-3.9Z"/><path class="cls-1" d="M214.73,137.28a3.43,3.43,0,0,1-1.86.59,2.13,2.13,0,0,1-1.53-.56,2.28,2.28,0,0,1-.58-1.71v-4.39h-1.13v-1.07h1.13V128h1.41v2.13h2.43v1.07h-2.43v4.14a1.45,1.45,0,0,0,.24.94.89.89,0,0,0,.72.29,2.53,2.53,0,0,0,1.23-.38Z"/><path class="cls-1" d="M222.22,130.92a4.44,4.44,0,0,1,.94,3c0,.2,0,.35,0,.45h-6.27a2.71,2.71,0,0,0,.89,1.69,2.63,2.63,0,0,0,1.79.63,3.32,3.32,0,0,0,1.31-.25,3.11,3.11,0,0,0,1.06-.72l.77.79a4,4,0,0,1-1.41,1,4.7,4.7,0,0,1-1.83.34,4.19,4.19,0,0,1-2.08-.5,3.57,3.57,0,0,1-1.41-1.42,4.58,4.58,0,0,1,0-4.16,3.67,3.67,0,0,1,1.4-1.42,4,4,0,0,1,2.06-.52A3.48,3.48,0,0,1,222.22,130.92Zm-.32,2.39a2.31,2.31,0,0,0-2.46-2.33,2.48,2.48,0,0,0-1.74.63,2.64,2.64,0,0,0-.84,1.7Z"/><path class="cls-1" d="M234.25,130.34a3.67,3.67,0,0,1,1.45,1.42,4.13,4.13,0,0,1,.51,2.07,4.23,4.23,0,0,1-.51,2.09,3.67,3.67,0,0,1-1.45,1.42,4.24,4.24,0,0,1-2.1.51,4.29,4.29,0,0,1-2.12-.51,3.71,3.71,0,0,1-1.45-1.41,4.24,4.24,0,0,1-.51-2.1,4.13,4.13,0,0,1,.51-2.07,3.67,3.67,0,0,1,1.45-1.42,4.29,4.29,0,0,1,2.12-.51A4.24,4.24,0,0,1,234.25,130.34Zm-3.49,1.06a2.54,2.54,0,0,0-.95,1,3.13,3.13,0,0,0-.33,1.45,3.18,3.18,0,0,0,.33,1.47,2.48,2.48,0,0,0,.95,1,2.76,2.76,0,0,0,1.39.35,2.71,2.71,0,0,0,1.37-.35,2.45,2.45,0,0,0,.94-1,3.07,3.07,0,0,0,.34-1.47,3,3,0,0,0-.34-1.45,2.52,2.52,0,0,0-.94-1,2.62,2.62,0,0,0-1.37-.36A2.67,2.67,0,0,0,230.76,131.4Z"/><path class="cls-1" d="M240.05,128.16a1.23,1.23,0,0,0-.36,1v1h2.19v1.07h-2.19v6.6H238.3v-6.6h-1v-1.07h1v-.85a2.87,2.87,0,0,1,.36-1.48,2.42,2.42,0,0,1,1-.91,2.73,2.73,0,0,1,1.29-.31,3.09,3.09,0,0,1,1.38.36l-.33,1.14a2.41,2.41,0,0,0-1-.26A1.28,1.28,0,0,0,240.05,128.16Z"/><path class="cls-1" d="M141.69,150.5a3,3,0,0,0,2.21.81,2.93,2.93,0,0,0,2.19-.81,3.15,3.15,0,0,0,.8-2.28V142h1.44v6.21a4.34,4.34,0,0,1-1.18,3.23,4.4,4.4,0,0,1-3.25,1.17,4.45,4.45,0,0,1-3.27-1.17,4.34,4.34,0,0,1-1.18-3.23V142h1.44v6.21A3.15,3.15,0,0,0,141.69,150.5Z"/><path class="cls-1" d="M157.57,145.35a3.11,3.11,0,0,1,.79,2.26v4.9H157V148a2,2,0,0,0-2.12-2.13,2.38,2.38,0,0,0-1.73.69,2.69,2.69,0,0,0-.76,1.73v4.24H151v-7.93h1.39v1.68a3.07,3.07,0,0,1,3-1.73A2.93,2.93,0,0,1,157.57,145.35Z"/><path class="cls-1" d="M168.25,141.38v11.13h-1.4v-1.57a3.13,3.13,0,0,1-1.2,1.22,3.52,3.52,0,0,1-1.77.43,3.7,3.7,0,0,1-2-.52,3.48,3.48,0,0,1-1.35-1.44,4.5,4.5,0,0,1-.48-2.11,4.33,4.33,0,0,1,.48-2.07A3.49,3.49,0,0,1,161.9,145a3.78,3.78,0,0,1,2-.51,3.63,3.63,0,0,1,1.78.42,3,3,0,0,1,1.2,1.21v-4.77ZM165.56,151a2.57,2.57,0,0,0,.95-1,3,3,0,0,0,.34-1.45,3.07,3.07,0,0,0-.34-1.47,2.57,2.57,0,0,0-.95-1,2.83,2.83,0,0,0-2.78,0,2.64,2.64,0,0,0-.95,1,3.06,3.06,0,0,0-.35,1.46,3,3,0,0,0,.35,1.45,2.57,2.57,0,0,0,.95,1,2.86,2.86,0,0,0,2.78,0Z"/><path class="cls-1" d="M177,145.62a4.46,4.46,0,0,1,.95,3c0,.2,0,.35,0,.45h-6.27a2.7,2.7,0,0,0,.9,1.7,2.63,2.63,0,0,0,1.79.63,3.33,3.33,0,0,0,1.31-.26,3.11,3.11,0,0,0,1.06-.72l.76.8a4,4,0,0,1-1.41,1,4.7,4.7,0,0,1-1.83.35,4.23,4.23,0,0,1-2.07-.5,3.5,3.5,0,0,1-1.41-1.42,4.23,4.23,0,0,1-.51-2.09,4.13,4.13,0,0,1,.51-2.07,3.63,3.63,0,0,1,1.4-1.43,4.08,4.08,0,0,1,2-.52A3.51,3.51,0,0,1,177,145.62Zm-.31,2.39a2.43,2.43,0,0,0-.72-1.7,2.45,2.45,0,0,0-1.74-.62,2.52,2.52,0,0,0-1.75.63,2.65,2.65,0,0,0-.83,1.69Z"/><path class="cls-1" d="M182.38,145a3.35,3.35,0,0,1,1.71-.46v1.35a2.54,2.54,0,0,0-2.82,2.45v4.18h-1.4v-7.93h1.4v1.71A2.91,2.91,0,0,1,182.38,145Z"/><path class="cls-1" d="M184.69,144.58h1.45l2.22,6.55,2.19-6.55H192l2.2,6.55,2.19-6.55h1.44l-2.92,7.93h-1.46l-2.19-6.24-2.19,6.24h-1.45Z"/><path class="cls-1" d="M201.76,145a3.35,3.35,0,0,1,1.71-.46v1.35a2.54,2.54,0,0,0-2.82,2.45v4.18h-1.4v-7.93h1.4v1.71A2.91,2.91,0,0,1,201.76,145Z"/><path class="cls-1" d="M206.3,141.67a.89.89,0,0,1,.24.64.92.92,0,0,1-.24.65.85.85,0,0,1-.63.25.83.83,0,0,1-.62-.25.92.92,0,0,1-.25-.65.9.9,0,0,1,.25-.64.84.84,0,0,1,.62-.26A.86.86,0,0,1,206.3,141.67ZM205,144.58h1.4v7.93H205Z"/><path class="cls-1" d="M213.35,152a3.41,3.41,0,0,1-1.86.58A2.09,2.09,0,0,1,210,152a2.24,2.24,0,0,1-.58-1.7v-4.4h-1.13v-1.06h1.13v-2.13h1.41v2.13h2.43v1.06h-2.43v4.14a1.49,1.49,0,0,0,.24.95.89.89,0,0,0,.72.28,2.5,2.5,0,0,0,1.23-.37Z"/><path class="cls-1" d="M220.91,145.62a4.46,4.46,0,0,1,1,3c0,.2,0,.35,0,.45h-6.27a2.74,2.74,0,0,0,.89,1.7,2.67,2.67,0,0,0,1.8.63,3.37,3.37,0,0,0,1.31-.26,3.21,3.21,0,0,0,1.06-.72l.76.8a4,4,0,0,1-1.41,1,4.7,4.7,0,0,1-1.83.35,4.29,4.29,0,0,1-2.08-.5,3.63,3.63,0,0,1-1.41-1.42,4.33,4.33,0,0,1-.5-2.09,4.23,4.23,0,0,1,.5-2.07,3.73,3.73,0,0,1,1.41-1.43,4.08,4.08,0,0,1,2.05-.52A3.51,3.51,0,0,1,220.91,145.62ZM220.6,148a2.43,2.43,0,0,0-.72-1.7,2.45,2.45,0,0,0-1.74-.62,2.51,2.51,0,0,0-1.75.63,2.6,2.6,0,0,0-.83,1.69Z"/><path class="cls-1" d="M226.27,145a3.35,3.35,0,0,1,1.71-.46v1.35a2.54,2.54,0,0,0-2.82,2.45v4.18h-1.4v-7.93h1.4v1.71A2.91,2.91,0,0,1,226.27,145Z"/><path class="cls-1" d="M232.74,145.85a3.9,3.9,0,0,0-1.13-.18,1.93,1.93,0,0,0-1,.24.77.77,0,0,0-.38.71.79.79,0,0,0,.43.73,6.44,6.44,0,0,0,1.3.5,10.13,10.13,0,0,1,1.35.48,2.41,2.41,0,0,1,.89.7,2.18,2.18,0,0,1-.48,2.94,3.64,3.64,0,0,1-2.11.59,5.31,5.31,0,0,1-1.72-.29,3.94,3.94,0,0,1-1.4-.81l.53-1a3.65,3.65,0,0,0,1.22.72,4.05,4.05,0,0,0,1.42.27,2.12,2.12,0,0,0,1.11-.25.85.85,0,0,0,.42-.78.88.88,0,0,0-.45-.81,5.89,5.89,0,0,0-1.34-.54,8.64,8.64,0,0,1-1.3-.46,2.23,2.23,0,0,1-.85-.68,1.81,1.81,0,0,1-.35-1.17,1.89,1.89,0,0,1,.81-1.67,3.48,3.48,0,0,1,2-.55,5.29,5.29,0,0,1,1.42.2,4.49,4.49,0,0,1,1.21.55l-.51,1.06A4.87,4.87,0,0,0,232.74,145.85Z"/><path class="cls-1" d="M240.46,142h1.44v9.2h4.59v1.3h-6Z"/><path class="cls-1" d="M253,152.51V151.4a3.26,3.26,0,0,1-2.78,1.17,3.19,3.19,0,0,1-1.45-.31,2.38,2.38,0,0,1-1-.87,2.41,2.41,0,0,1-.33-1.25,2,2,0,0,1,.78-1.68,3.51,3.51,0,0,1,2.2-.64H253v-.38a1.63,1.63,0,0,0-.51-1.29,2.2,2.2,0,0,0-1.51-.46,4.32,4.32,0,0,0-2.45.85l-.58-1a7.34,7.34,0,0,1,1.58-.8,5.5,5.5,0,0,1,1.73-.25,3.36,3.36,0,0,1,2.3.73,2.63,2.63,0,0,1,.82,2l0,5.22ZM252.2,151a1.9,1.9,0,0,0,.81-1.26v-.79h-2.32a2.69,2.69,0,0,0-1.4.28,1,1,0,0,0-.46.9,1.17,1.17,0,0,0,.46,1,2,2,0,0,0,1.25.36A2.9,2.9,0,0,0,252.2,151Z"/><path class="cls-1" d="M263.29,145a3.51,3.51,0,0,1,1.35,1.43,4.45,4.45,0,0,1,.48,2.1,4.4,4.4,0,0,1-.48,2.08,3.48,3.48,0,0,1-1.33,1.41,3.9,3.9,0,0,1-2,.5,3.62,3.62,0,0,1-1.77-.42,3,3,0,0,1-1.2-1.2v1.57H257V141.38h1.4v4.77a3,3,0,0,1,1.19-1.2,3.54,3.54,0,0,1,1.75-.42A3.84,3.84,0,0,1,263.29,145Zm-.88,5.94a2.45,2.45,0,0,0,.94-1,3.05,3.05,0,0,0,.34-1.46,3,3,0,0,0-.34-1.44,2.54,2.54,0,0,0-1-1,2.58,2.58,0,0,0-1.36-.36,2.68,2.68,0,0,0-1.38.36,2.54,2.54,0,0,0-1,1,3,3,0,0,0-.34,1.44,3.07,3.07,0,0,0,.34,1.47,2.58,2.58,0,0,0,1,1,2.68,2.68,0,0,0,1.38.36A2.64,2.64,0,0,0,262.41,151Z"/><path class="cls-1" d="M272.47,145a3.64,3.64,0,0,1,1.44,1.42,4.42,4.42,0,0,1,0,4.16,3.6,3.6,0,0,1-1.44,1.43,4.24,4.24,0,0,1-2.1.51,4.29,4.29,0,0,1-2.12-.51,3.67,3.67,0,0,1-1.45-1.42,4.52,4.52,0,0,1,0-4.17,3.73,3.73,0,0,1,1.45-1.42,4.29,4.29,0,0,1,2.12-.51A4.24,4.24,0,0,1,272.47,145ZM269,146.11a2.48,2.48,0,0,0-1,1,3.06,3.06,0,0,0-.33,1.44A3.18,3.18,0,0,0,268,150a2.41,2.41,0,0,0,1,1,2.9,2.9,0,0,0,2.76,0,2.39,2.39,0,0,0,.94-1,3.07,3.07,0,0,0,.34-1.47,3,3,0,0,0-.34-1.44,2.45,2.45,0,0,0-.94-1,2.82,2.82,0,0,0-2.76,0Z"/><path class="cls-1" d="M278.89,145a3.35,3.35,0,0,1,1.71-.46v1.35a2.54,2.54,0,0,0-2.82,2.45v4.18h-1.4v-7.93h1.4v1.71A2.91,2.91,0,0,1,278.89,145Z"/><path class="cls-1" d="M286.61,152.51V151.4a3.24,3.24,0,0,1-2.77,1.17,3.16,3.16,0,0,1-1.45-.31,2.26,2.26,0,0,1-1-.87,2.32,2.32,0,0,1-.34-1.25,2,2,0,0,1,.79-1.68,3.49,3.49,0,0,1,2.2-.64h2.52v-.38a1.64,1.64,0,0,0-.52-1.29,2.2,2.2,0,0,0-1.51-.46,4.29,4.29,0,0,0-2.44.85l-.59-1a7.57,7.57,0,0,1,1.58-.8,5.61,5.61,0,0,1,1.74-.25,3.33,3.33,0,0,1,2.29.73,2.64,2.64,0,0,1,.83,2v5.22Zm-.83-1.56a1.91,1.91,0,0,0,.82-1.26v-.79h-2.33a2.69,2.69,0,0,0-1.4.28,1,1,0,0,0-.46.9,1.18,1.18,0,0,0,.47,1,2,2,0,0,0,1.24.36A2.9,2.9,0,0,0,285.78,151Z"/><path class="cls-1" d="M294.74,152a3.41,3.41,0,0,1-1.86.58,2.09,2.09,0,0,1-1.53-.56,2.24,2.24,0,0,1-.58-1.7v-4.4h-1.13v-1.06h1.13v-2.13h1.41v2.13h2.43v1.06h-2.43v4.14a1.49,1.49,0,0,0,.24.95.89.89,0,0,0,.72.28,2.5,2.5,0,0,0,1.23-.37Z"/><path class="cls-1" d="M301.74,145a3.78,3.78,0,0,1,1.44,1.42,4.42,4.42,0,0,1,0,4.16,3.73,3.73,0,0,1-1.44,1.43,4.64,4.64,0,0,1-4.23,0,3.58,3.58,0,0,1-1.44-1.42,4.44,4.44,0,0,1,0-4.17,3.64,3.64,0,0,1,1.44-1.42,4.64,4.64,0,0,1,4.23,0Zm-3.5,1.07a2.45,2.45,0,0,0-.94,1,3,3,0,0,0-.34,1.44,3.07,3.07,0,0,0,.34,1.47,2.39,2.39,0,0,0,.94,1,2.69,2.69,0,0,0,1.39.35A2.61,2.61,0,0,0,301,151a2.41,2.41,0,0,0,.95-1,3.19,3.19,0,0,0,.34-1.47,3.06,3.06,0,0,0-.34-1.44,2.48,2.48,0,0,0-.95-1,2.62,2.62,0,0,0-1.37-.36A2.69,2.69,0,0,0,298.24,146.11Z"/><path class="cls-1" d="M308.15,145a3.35,3.35,0,0,1,1.71-.46v1.35a2.66,2.66,0,0,0-2,.63,2.69,2.69,0,0,0-.86,1.82v4.18h-1.39v-7.93H307v1.71A2.91,2.91,0,0,1,308.15,145Z"/><path class="cls-1" d="M312.69,141.67a.9.9,0,0,1,.25.64.92.92,0,0,1-.25.65.83.83,0,0,1-.62.25.85.85,0,0,1-.63-.25.92.92,0,0,1-.24-.65.89.89,0,0,1,.24-.64.86.86,0,0,1,.63-.26A.84.84,0,0,1,312.69,141.67Zm-1.31,2.91h1.39v7.93h-1.39Z"/><path class="cls-1" d="M321.46,145.62a4.46,4.46,0,0,1,.94,3c0,.2,0,.35,0,.45h-6.27a2.69,2.69,0,0,0,.89,1.7,2.63,2.63,0,0,0,1.79.63,3.33,3.33,0,0,0,1.31-.26,3.11,3.11,0,0,0,1.06-.72l.77.8a4,4,0,0,1-1.41,1,4.7,4.7,0,0,1-1.83.35,4.27,4.27,0,0,1-2.08-.5,3.5,3.5,0,0,1-1.41-1.42,4.22,4.22,0,0,1-.5-2.09,4.12,4.12,0,0,1,.5-2.07,3.63,3.63,0,0,1,1.4-1.43,4.12,4.12,0,0,1,2.06-.52A3.51,3.51,0,0,1,321.46,145.62Zm-.32,2.39a2.43,2.43,0,0,0-.72-1.7,2.45,2.45,0,0,0-1.74-.62,2.52,2.52,0,0,0-1.75.63,2.65,2.65,0,0,0-.83,1.69Z"/><path class="cls-1" d="M327.55,145.85a3.85,3.85,0,0,0-1.13-.18,1.86,1.86,0,0,0-1,.24.76.76,0,0,0-.38.71.8.8,0,0,0,.42.73,6.69,6.69,0,0,0,1.3.5,10.13,10.13,0,0,1,1.35.48,2.33,2.33,0,0,1,.89.7,1.9,1.9,0,0,1,.37,1.23,1.94,1.94,0,0,1-.85,1.71,3.59,3.59,0,0,1-2.1.59,5.26,5.26,0,0,1-1.72-.29,3.77,3.77,0,0,1-1.4-.81l.52-1a3.75,3.75,0,0,0,1.22.72,4.1,4.1,0,0,0,1.42.27,2.12,2.12,0,0,0,1.11-.25.85.85,0,0,0,.42-.78.89.89,0,0,0-.44-.81,6.1,6.1,0,0,0-1.34-.54,7.9,7.9,0,0,1-1.3-.46,2.26,2.26,0,0,1-.86-.68,1.87,1.87,0,0,1-.35-1.17,1.89,1.89,0,0,1,.81-1.67,3.52,3.52,0,0,1,2-.55,5.16,5.16,0,0,1,1.41.2,4.36,4.36,0,0,1,1.21.55l-.51,1.06A4.68,4.68,0,0,0,327.55,145.85Z"/><path class="cls-1" d="M335.27,142h1.44v10.5h-1.44Z"/><path class="cls-1" d="M346.17,145.35a3.12,3.12,0,0,1,.8,2.26v4.9h-1.39V148a2,2,0,0,0-2.12-2.13,2.37,2.37,0,0,0-1.73.69,2.64,2.64,0,0,0-.76,1.73v4.24h-1.39v-7.93H341v1.68a3.06,3.06,0,0,1,3-1.73A2.93,2.93,0,0,1,346.17,145.35Z"/><path class="cls-1" d="M352.76,145.78a2.78,2.78,0,0,0-1.39.34,2.49,2.49,0,0,0-.95,1,3,3,0,0,0-.34,1.45,3.11,3.11,0,0,0,.33,1.46,2.51,2.51,0,0,0,.93,1,2.58,2.58,0,0,0,1.36.35,3.57,3.57,0,0,0,1.38-.25,2.64,2.64,0,0,0,1-.74l.8.81a3.51,3.51,0,0,1-1.38,1,4.67,4.67,0,0,1-1.88.36,4.08,4.08,0,0,1-2.05-.51,3.63,3.63,0,0,1-1.41-1.42,4.58,4.58,0,0,1,0-4.16,3.66,3.66,0,0,1,1.41-1.43,4.08,4.08,0,0,1,2.05-.51,5.16,5.16,0,0,1,1.81.31,3.58,3.58,0,0,1,1.34.89l-.76,1A3.15,3.15,0,0,0,352.76,145.78Z"/><path class="cls-1" d="M358.66,151.16a.92.92,0,0,1,0,1.24.73.73,0,0,1-.58.25.77.77,0,0,1-.58-.25.92.92,0,0,1,0-1.24.8.8,0,0,1,.58-.24A.75.75,0,0,1,358.66,151.16Z"/><text/><polygon class="cls-1" points="6.65 37.09 6.65 106.41 66.68 141.07 113.28 114.17 113.28 97.03 66.68 123.93 21.5 97.84 21.5 45.67 66.68 19.58 113.28 46.48 113.28 29.34 66.68 2.43 6.65 37.09"/><polygon class="cls-1" points="51.26 97.68 51.26 45.81 36.41 54.32 36.41 89.31 51.26 97.68"/><rect class="cls-1" x="139.65" y="79.84" width="6.41" height="30.42"/><path class="cls-1" d="M166.29,83.63c-3.85,0-7,1.28-9.07,3.7v-3.4h-5.87v26.33h6.16V97c0-5.28,3-7.94,7.35-7.94,3.95,0,6.26,2.26,6.26,6.95v14.3h6.17V95.17C177.29,87.23,172.6,83.63,166.29,83.63Z"/><path class="cls-1" d="M188.2,91.57c0-1.73,1.78-3,5.53-3a14.39,14.39,0,0,1,7.54,2l2.37-4.68c-2.37-1.43-6.36-2.27-9.86-2.27-7.11,0-11.59,3.26-11.59,8.24,0,10.5,16.27,5.77,16.27,10.8,0,1.82-1.63,2.91-5.52,2.91a17.66,17.66,0,0,1-9.17-2.62l-2.37,4.69c2.37,1.67,6.75,3,11.14,3,7.4,0,11.94-3.21,11.94-8.14C204.48,92.16,188.2,96.9,188.2,91.57Z"/><rect class="cls-1" x="208.81" y="83.93" width="6.16" height="26.33"/><path class="cls-1" d="M242.28,87.43c-2.21-2.62-5.53-3.8-9.3-3.8-7.69,0-13.58,5-13.58,12.67s5.89,12.78,13.58,12.78a12,12,0,0,0,9-3.5V107c0,5.32-2.62,8-8.55,8a16.43,16.43,0,0,1-9.9-3.15l-2.82,4.63c3.07,2.47,8,3.75,13.07,3.75,9.4,0,14.48-4.34,14.48-13.9V83.93h-6Zm-8.35,16.42c-4.77,0-8.19-3.06-8.19-7.55s3.42-7.44,8.19-7.44,8.15,3,8.15,7.44S238.66,103.85,233.93,103.85Z"/><path class="cls-1" d="M268.52,83.63A11.75,11.75,0,0,0,259.74,87V73.67h-6.16v36.59h6.16V97c0-5.28,3-7.94,7.35-7.94,4,0,6.26,2.26,6.26,6.95v14.3h6.17V95.17C279.52,87.23,274.83,83.63,268.52,83.63Z"/><path class="cls-1" d="M296.57,105.53c-2.37,0-3.65-1.38-3.65-4V89.05H300V84.44h-7.05v-4.6h-6.16v4.6h-4.34v4.61h4.34v12.68c0,5.82,3.3,8.88,9.07,8.88a9.72,9.72,0,0,0,5.92-1.78L300,104.44A5.53,5.53,0,0,1,296.57,105.53Z"/><path class="cls-1" d="M312.13,91.57c0-1.73,1.77-3,5.52-3a14.42,14.42,0,0,1,7.55,2l2.36-4.68c-2.36-1.43-6.36-2.27-9.86-2.27-7.1,0-11.59,3.26-11.59,8.24,0,10.5,16.28,5.77,16.28,10.8,0,1.82-1.63,2.91-5.53,2.91a17.72,17.72,0,0,1-9.17-2.62l-2.37,4.69c2.37,1.67,6.76,3,11.15,3,7.4,0,11.93-3.21,11.93-8.14C328.4,92.16,312.13,96.9,312.13,91.57Z"/><path class="cls-1" d="M158.84,68.34,154.7,64.4a12,12,0,0,1-9.22,4.09c-7.15,0-12.33-5-12.33-12.13s5.18-12.13,12.33-12.13a12.13,12.13,0,0,1,9.22,4l4.14-3.89c-3.2-3.75-8-5.77-13.66-5.77-10.6,0-18.49,7.44-18.49,17.75s7.89,17.75,18.44,17.75C150.8,74.11,155.64,72.09,158.84,68.34Z"/><path class="cls-1" d="M183,73.62h6.16V58.53c0-7.94-4.68-11.54-11-11.54a11.74,11.74,0,0,0-8.78,3.35V37h-6.16V73.62h6.16V60.31c0-5.28,3-7.94,7.35-7.94,3.94,0,6.26,2.26,6.26,7Z"/><path class="cls-1" d="M207.09,47c-7.85,0-13.62,5.62-13.62,13.46S199.2,74,208,74c4.54,0,8.24-1.48,10.6-4.3l-3.3-3.79a9.44,9.44,0,0,1-7.15,2.86c-4.59,0-7.79-2.47-8.53-6.31H220.3c0-.6.1-1.34.1-1.83C220.4,52.37,214.78,47,207.09,47Zm-7.5,11.34a7.28,7.28,0,0,1,7.5-6.41,7.17,7.17,0,0,1,7.44,6.41Z"/><path class="cls-1" d="M262.94,59.32v14.3h6.17V58.53c0-7.94-4.44-11.54-10.8-11.54a12.3,12.3,0,0,0-9.87,4.39c-1.82-3-5-4.39-8.87-4.39a10.89,10.89,0,0,0-8.63,3.65V47.29h-5.87V73.62h6.16V60.26c0-5.23,2.76-7.89,6.86-7.89,3.75,0,5.91,2.26,5.91,7v14.3h6.17V60.26c0-5.23,2.81-7.89,6.85-7.89C260.77,52.37,262.94,54.63,262.94,59.32Z"/><rect class="cls-1" x="274.7" y="47.29" width="6.16" height="26.33"/><path class="cls-1" d="M310.9,67.8,306.16,65a7.45,7.45,0,0,1-6.56,3.65c-4.53,0-8-3.11-8-8.24s3.45-8.23,8-8.23a7.43,7.43,0,0,1,6.56,3.65l4.74-2.76c-2-4-6.12-6.12-11.25-6.12-8.33,0-14.25,5.57-14.25,13.46S291.32,74,299.65,74C304.78,74,308.88,71.75,310.9,67.8Z"/><path class="cls-1" d="M325.48,47c-4.25,0-8.34,1.09-11.15,3.26l2.42,4.48a13.08,13.08,0,0,1,8-2.61c4.38,0,6.55,2.12,6.55,5.72v.39h-6.8c-8,0-10.95,3.46-10.95,7.84,0,4.59,3.8,7.9,9.82,7.9,3.94,0,6.8-1.29,8.28-3.56v3.21h5.82V58.18C337.46,50.59,333.07,47,325.48,47Zm5.81,18.39c-1,2.72-3.64,4.1-6.65,4.1s-5-1.43-5-3.65c0-1.93,1.13-3.5,5.32-3.5h6.36Z"/><rect class="cls-1" x="342.33" y="37.03" width="6.17" height="36.59"/></svg>